<?xml version="1.0" encoding="utf-8"?>
<!-- Generator: Adobe Illustrator 26.0.1, SVG Export Plug-In . SVG Version: 6.00 Build 0)  -->
<svg version="1.1" id="Layer_1_copy" xmlns="http://www.w3.org/2000/svg" xmlns:xlink="http://www.w3.org/1999/xlink" x="0px"
	 y="0px" viewBox="0 0 40 40" style="enable-background:new 0 0 40 40;" xml:space="preserve">
<style type="text/css">
	.st0{fill:#FFFFFF;}
</style>
<g>
	<path class="st0" d="M28,1.1H15c-3.3,0-6,2.7-6,6v28.9c0,1.7,1.3,3,3,3H25c3.3,0,6-2.7,6-6V4.1C31,2.4,29.6,1.1,28,1.1z M11,11.4
		H29v16.2H11V11.4z M15,3.1H28c0.6,0,1,0.4,1,1v5.3H11V7.1C11,4.9,12.8,3.1,15,3.1z M25,36.9H12c-0.6,0-1-0.4-1-1v-6.3H29v3.3
		C29,35.2,27.2,36.9,25,36.9z"/>
	<path class="st0" d="M18,7h4c0.6,0,1-0.4,1-1s-0.4-1-1-1h-4c-0.6,0-1,0.4-1,1S17.4,7,18,7z"/>
	<circle class="st0" cx="20" cy="33.3" r="1.8"/>
</g>
</svg>
