<?xml version="1.0" encoding="utf-8"?>
<!-- Generator: Adobe Illustrator 26.0.1, SVG Export Plug-In . SVG Version: 6.00 Build 0)  -->
<svg version="1.1" id="Layer_1_copy" xmlns="http://www.w3.org/2000/svg" xmlns:xlink="http://www.w3.org/1999/xlink" x="0px"
	 y="0px" viewBox="0 0 40 40" style="enable-background:new 0 0 40 40;" xml:space="preserve">
<style type="text/css">
	.st0{fill:#FFFFFF;}
</style>
<g>
	<g>
		<path class="st0" d="M36,3H7C3.7,3,1,5.7,1,9v17.1c0,1.7,1.3,3,3,3H33c3.3,0,6-2.7,6-6V6C39,4.4,37.7,3,36,3z M37,23.2
			c0,2.2-1.8,4-4,4H4c-0.6,0-1-0.4-1-1V9c0-2.2,1.8-4,4-4H36c0.6,0,1,0.4,1,1V23.2z"/>
		<path class="st0" d="M32,35H8c-0.6,0-1,0.4-1,1c0,0.6,0.4,1,1,1h24c0.6,0,1-0.4,1-1C33,35.4,32.5,35,32,35z"/>
	</g>
	<g>
		<path class="st0" d="M15.8,12.7v8.7h-2v-8.7h-3.1V11h8.2v1.7H15.8z"/>
		<path class="st0" d="M25.3,21.4h-1.9L19.2,11h2.1l3,7.8l3-7.8h2.1L25.3,21.4z"/>
	</g>
</g>
</svg>
