<?xml version="1.0" encoding="utf-8"?>
<!-- Generator: Adobe Illustrator 26.0.1, SVG Export Plug-In . SVG Version: 6.00 Build 0)  -->
<svg version="1.1" id="ICONS" xmlns="http://www.w3.org/2000/svg" xmlns:xlink="http://www.w3.org/1999/xlink" x="0px" y="0px"
	 viewBox="0 0 40 40" style="enable-background:new 0 0 40 40;" xml:space="preserve">
<style type="text/css">
	.st0{fill:#FFFFFF;}
</style>
<g>
	<g>
		<g>
			<path class="st0" d="M32,38.6H8c-0.6,0-1-0.4-1-1V20.5H2c-0.4,0-0.8-0.3-0.9-0.6c-0.1-0.4,0-0.8,0.3-1.1L16,5.8
				c2.3-2,5.7-2,7.9,0l14.7,12.9c0.3,0.3,0.4,0.7,0.3,1.1c-0.1,0.4-0.5,0.6-0.9,0.6h-5v17.1C33,38.2,32.5,38.6,32,38.6z M9,36.6h22
				V19.5c0-0.6,0.4-1,1-1h3.3L22.6,7.3c-1.5-1.3-3.8-1.3-5.3,0L4.7,18.5H8c0.6,0,1,0.4,1,1V36.6z"/>
		</g>
	</g>
	<g>
		<g>
			<path class="st0" d="M22.4,25.8c-0.3,0-0.5-0.1-0.7-0.3c-0.9-0.9-2.5-0.9-3.4,0c-0.4,0.4-1,0.4-1.4,0s-0.4-1,0-1.4
				c1.7-1.7,4.5-1.7,6.2,0c0.4,0.4,0.4,1,0,1.4C22.9,25.7,22.7,25.8,22.4,25.8z"/>
		</g>
		<g>
			<path class="st0" d="M25.6,22.6c-0.3,0-0.5-0.1-0.7-0.3c-2.7-2.7-7.1-2.7-9.8,0c-0.4,0.4-1,0.4-1.4,0s-0.4-1,0-1.4
				c3.5-3.5,9.1-3.5,12.6,0c0.4,0.4,0.4,1,0,1.4C26.1,22.5,25.9,22.6,25.6,22.6z"/>
		</g>
		<g>
			<path class="st0" d="M29.2,19c-0.3,0-0.5-0.1-0.7-0.3c-4.7-4.7-12.3-4.7-17,0c-0.4,0.4-1,0.4-1.4,0s-0.4-1,0-1.4
				c5.5-5.5,14.4-5.5,19.8,0c0.4,0.4,0.4,1,0,1.4C29.7,18.9,29.5,19,29.2,19z"/>
		</g>
	</g>
</g>
</svg>
