<?xml version="1.0" encoding="UTF-8"?>
<!DOCTYPE svg PUBLIC "-//W3C//DTD SVG 1.1//EN" "http://www.w3.org/Graphics/SVG/1.1/DTD/svg11.dtd">
<svg version="1.1" xmlns="http://www.w3.org/2000/svg" xmlns:xlink="http://www.w3.org/1999/xlink" x="0" y="0" width="482" height="376" viewBox="0, 0, 482, 376">
  <defs>
    <linearGradient id="Gradient_1" gradientUnits="userSpaceOnUse" x1="11.034" y1="131.778" x2="439.034" y2="131.778">
      <stop offset="0" stop-color="#85513A"/>
      <stop offset="1" stop-color="#3D2D21"/>
    </linearGradient>
    <linearGradient id="Gradient_2" gradientUnits="userSpaceOnUse" x1="16.662" y1="36.377" x2="103.323" y2="36.377">
      <stop offset="0" stop-color="#85513A"/>
      <stop offset="1" stop-color="#3D2D21"/>
    </linearGradient>
    <linearGradient id="Gradient_3" gradientUnits="userSpaceOnUse" x1="16.662" y1="98.377" x2="103.323" y2="98.377">
      <stop offset="0" stop-color="#85513A"/>
      <stop offset="1" stop-color="#3D2D21"/>
    </linearGradient>
    <linearGradient id="Gradient_4" gradientUnits="userSpaceOnUse" x1="16.662" y1="161.064" x2="103.323" y2="161.064">
      <stop offset="0" stop-color="#85513A"/>
      <stop offset="1" stop-color="#3D2D21"/>
    </linearGradient>
    <linearGradient id="Gradient_5" gradientUnits="userSpaceOnUse" x1="16.662" y1="221.064" x2="103.323" y2="221.064">
      <stop offset="0" stop-color="#85513A"/>
      <stop offset="1" stop-color="#3D2D21"/>
    </linearGradient>
    <clipPath id="Clip_1">
      <path d="M97.648,200.753 C100.762,200.753 103.318,203.309 103.318,206.423 L103.318,235.745 C103.188,238.917 100.923,241.082 97.835,241.396 L22.139,241.396 C18.946,241.24 16.969,238.83 16.663,235.804 L16.663,206.364 C16.801,203.081 19.209,201.07 22.327,200.753 L97.648,200.753 z"/>
    </clipPath>
    <linearGradient id="Gradient_6" gradientUnits="userSpaceOnUse" x1="125.662" y1="36.377" x2="212.323" y2="36.377">
      <stop offset="0" stop-color="#85513A"/>
      <stop offset="1" stop-color="#3D2D21"/>
    </linearGradient>
    <linearGradient id="Gradient_7" gradientUnits="userSpaceOnUse" x1="125.662" y1="98.377" x2="212.323" y2="98.377">
      <stop offset="0" stop-color="#85513A"/>
      <stop offset="1" stop-color="#3D2D21"/>
    </linearGradient>
    <linearGradient id="Gradient_8" gradientUnits="userSpaceOnUse" x1="125.662" y1="161.064" x2="212.323" y2="161.064">
      <stop offset="0" stop-color="#85513A"/>
      <stop offset="1" stop-color="#3D2D21"/>
    </linearGradient>
    <linearGradient id="Gradient_9" gradientUnits="userSpaceOnUse" x1="125.662" y1="221.064" x2="212.323" y2="221.064">
      <stop offset="0" stop-color="#85513A"/>
      <stop offset="1" stop-color="#3D2D21"/>
    </linearGradient>
    <clipPath id="Clip_2">
      <path d="M206.647,200.753 C209.77,200.753 212.317,203.309 212.317,206.423 L212.317,235.745 C212.188,238.919 209.925,241.083 206.835,241.396 L131.139,241.396 C127.955,241.239 125.97,238.834 125.663,235.814 L125.663,206.354 C125.804,203.078 128.216,201.07 131.326,200.753 L206.647,200.753 z"/>
    </clipPath>
    <linearGradient id="Gradient_10" gradientUnits="userSpaceOnUse" x1="235.662" y1="36.377" x2="322.323" y2="36.377">
      <stop offset="0" stop-color="#85513A"/>
      <stop offset="1" stop-color="#3D2D21"/>
    </linearGradient>
    <linearGradient id="Gradient_11" gradientUnits="userSpaceOnUse" x1="235.662" y1="98.377" x2="322.323" y2="98.377">
      <stop offset="0" stop-color="#85513A"/>
      <stop offset="1" stop-color="#3D2D21"/>
    </linearGradient>
    <linearGradient id="Gradient_12" gradientUnits="userSpaceOnUse" x1="235.662" y1="161.064" x2="322.323" y2="161.064">
      <stop offset="0" stop-color="#85513A"/>
      <stop offset="1" stop-color="#3D2D21"/>
    </linearGradient>
    <linearGradient id="Gradient_13" gradientUnits="userSpaceOnUse" x1="235.662" y1="221.064" x2="322.323" y2="221.064">
      <stop offset="0" stop-color="#85513A"/>
      <stop offset="1" stop-color="#3D2D21"/>
    </linearGradient>
    <clipPath id="Clip_3">
      <path d="M316.645,200.753 C319.768,200.753 322.315,203.309 322.315,206.423 L322.315,235.745 C322.186,238.919 319.923,241.083 316.833,241.396 L241.137,241.396 C237.96,241.239 235.969,238.841 235.662,235.824 L235.662,206.344 C235.805,203.072 238.22,201.069 241.324,200.753 L316.645,200.753 z"/>
    </clipPath>
    <linearGradient id="Gradient_14" gradientUnits="userSpaceOnUse" x1="346.617" y1="36.426" x2="433.279" y2="36.426">
      <stop offset="0" stop-color="#85513A"/>
      <stop offset="1" stop-color="#3D2D21"/>
    </linearGradient>
    <clipPath id="Clip_4">
      <path d="M427.7,16.096 C430.696,16.233 432.976,18.372 433.28,21.357 L433.28,51.486 C433.084,54.628 430.569,56.456 427.651,56.753 L352.321,56.753 C349.207,56.753 346.66,54.197 346.66,51.083 L346.66,21.761 C346.789,18.492 349.137,16.414 352.272,16.096 L427.7,16.096 z"/>
    </clipPath>
    <linearGradient id="Gradient_15" gradientUnits="userSpaceOnUse" x1="346.617" y1="98.426" x2="433.279" y2="98.426">
      <stop offset="0" stop-color="#85513A"/>
      <stop offset="1" stop-color="#3D2D21"/>
    </linearGradient>
    <clipPath id="Clip_5">
      <path d="M427.69,78.096 C430.689,78.232 432.976,80.368 433.28,83.358 L433.28,113.487 C433.084,116.628 430.566,118.449 427.651,118.745 L352.321,118.745 C349.207,118.745 346.66,116.198 346.66,113.084 L346.66,83.762 C346.789,80.486 349.144,78.415 352.282,78.096 L427.69,78.096 z"/>
    </clipPath>
    <linearGradient id="Gradient_16" gradientUnits="userSpaceOnUse" x1="346.617" y1="221.051" x2="433.279" y2="221.051">
      <stop offset="0" stop-color="#85513A"/>
      <stop offset="1" stop-color="#3D2D21"/>
    </linearGradient>
    <clipPath id="Clip_6">
      <path d="M427.651,200.753 C430.663,200.885 432.973,203.009 433.28,206.02 L433.28,236.149 C433.09,239.066 430.785,241.097 427.975,241.382 L351.997,241.382 C348.82,241.202 346.96,238.707 346.66,235.745 L346.66,206.423 C346.66,203.309 349.207,200.753 352.321,200.753 L427.651,200.753 z"/>
    </clipPath>
    <linearGradient id="Gradient_17" gradientUnits="userSpaceOnUse" x1="346.617" y1="161.051" x2="433.279" y2="161.051">
      <stop offset="0" stop-color="#85513A"/>
      <stop offset="1" stop-color="#3D2D21"/>
    </linearGradient>
    <clipPath id="Clip_7">
      <path d="M427.651,140.759 C430.66,140.89 432.973,143.007 433.28,146.017 L433.28,176.154 C433.09,179.033 430.816,181.098 428.025,181.383 L351.947,181.383 C348.794,181.192 346.958,178.683 346.66,175.751 L346.66,146.42 C346.66,143.306 349.207,140.759 352.321,140.759 L427.651,140.759 z"/>
    </clipPath>
    <linearGradient id="Gradient_18" gradientUnits="userSpaceOnUse" x1="332.652" y1="190.47" x2="412.035" y2="190.47">
      <stop offset="0" stop-color="#85513A"/>
      <stop offset="1" stop-color="#3D2D21"/>
    </linearGradient>
    <clipPath id="Clip_8">
      <path d="M411.982,148.76 C412.999,166.22 405.322,168.416 409.984,190.286 C403.513,193.283 383.128,200.834 379.798,218.168 C358.774,208.421 350.503,217.691 340.207,228.923 C328.921,241.235 342.484,216.17 333.142,204.191 C329.146,199.07 352.987,207.161 355.489,190.628 L347.317,158.084 L411.982,148.76 z"/>
    </clipPath>
    <linearGradient id="Gradient_19" gradientUnits="userSpaceOnUse" x1="232.92" y1="238.173" x2="316.46" y2="238.173">
      <stop offset="0" stop-color="#85513A"/>
      <stop offset="1" stop-color="#3D2D21"/>
    </linearGradient>
  </defs>
  <g id="Layer_1">
    <path d="M442.486,68.036 L442.486,64.998 C445.512,63.644 447.986,57.433 447.986,51.198 L447.986,13.041 C447.986,6.805 442.884,1.703 436.647,1.703 L350.575,1.703 C344.34,1.703 338.129,4.178 336.774,7.203 L330.699,7.203 C329.345,4.178 323.134,1.703 316.897,1.703 L241.825,1.703 C235.59,1.703 229.379,4.178 228.024,7.203 L221.949,7.203 C220.594,4.178 214.385,1.703 208.148,1.703 L131.575,1.703 C125.339,1.703 119.129,4.178 117.774,7.203 L111.699,7.203 C110.344,4.178 104.134,1.703 97.898,1.703 L14.325,1.703 C8.089,1.703 2.986,6.805 2.986,13.041 L2.986,50.747 C2.986,56.983 5.462,63.193 8.486,64.548 L8.486,70.623 C5.462,71.977 2.986,78.188 2.986,84.424 L2.986,112.388 C2.986,118.623 5.462,124.834 8.486,126.188 L8.486,132.264 C5.462,133.618 2.986,139.828 2.986,146.064 L2.986,173.658 C2.986,179.894 5.462,186.104 8.486,187.459 L8.486,193.535 C5.462,194.89 2.986,201.1 2.986,207.336 L2.986,243.08 C2.986,249.316 8.089,254.419 14.325,254.419 L97.732,254.419 C103.967,254.419 110.178,251.944 111.532,248.919 L117.608,248.919 C118.962,251.944 125.173,254.419 131.408,254.419 L436.647,254.419 C442.884,254.419 447.986,249.316 447.986,243.08 L447.986,84.874 C447.986,78.639 445.512,72.428 442.486,71.074 L442.486,68.036" fill="#1A1919"/>
    <path d="M322.315,195.083 C325.438,195.083 327.985,197.639 327.985,200.753 L327.985,241.415 C327.985,244.538 325.438,247.256 322.333,247.463 L234.646,253.313 C231.532,253.52 229.03,251.135 229.084,248.021 L229.894,200.753 C229.939,197.639 232.54,195.083 235.654,195.083 L322.315,195.083 z M103.318,195.083 C106.432,195.083 108.988,197.639 108.988,200.753 L108.988,241.415 C108.988,244.538 106.432,247.085 103.318,247.085 L16.657,247.085 C13.693,246.954 11.338,244.879 11.035,241.889 L11.035,200.28 C11.243,197.164 13.777,195.376 16.657,195.083 L103.318,195.083 z M212.317,195.083 C215.44,195.083 217.987,197.639 217.987,200.753 L217.987,241.415 C217.987,244.538 215.44,247.085 212.317,247.085 L125.656,247.085 C122.542,247.085 119.986,244.538 119.986,241.415 L119.986,200.753 C119.986,197.639 122.542,195.083 125.656,195.083 L212.317,195.083 z M433.321,195.083 C436.435,195.083 438.982,197.639 438.982,200.753 L438.982,241.415 C438.982,244.538 436.435,247.085 433.321,247.085 L346.651,247.085 C343.537,247.085 340.99,244.538 340.99,241.415 L340.99,200.753 C340.99,197.639 343.537,195.083 346.651,195.083 L433.321,195.083 z M103.318,135.089 C106.432,135.089 108.988,137.636 108.988,140.759 L108.988,181.421 C108.988,184.535 106.432,187.082 103.318,187.082 L16.657,187.082 C13.697,186.951 11.338,184.882 11.035,181.894 L11.035,140.285 C11.241,137.167 13.776,135.381 16.657,135.089 L103.318,135.089 z M212.317,135.089 C215.44,135.089 217.987,137.636 217.987,140.759 L217.987,181.421 C217.987,184.535 215.44,187.082 212.317,187.082 L125.656,187.082 C122.542,187.082 119.986,184.535 119.986,181.421 L119.986,140.759 C119.986,137.636 122.542,135.089 125.656,135.089 L212.317,135.089 z M322.315,135.089 C325.438,135.089 327.985,137.636 327.985,140.759 L327.985,181.421 C327.985,184.535 325.438,187.082 322.315,187.082 L235.654,187.082 C232.54,187.082 229.984,184.535 229.984,181.421 L229.984,140.759 C229.984,137.636 232.54,135.089 235.654,135.089 L322.315,135.089 z M433.321,135.089 C436.435,135.089 438.982,137.636 438.982,140.759 L438.982,181.421 C438.982,184.535 436.435,187.082 433.321,187.082 L346.651,187.082 C343.537,187.082 340.99,184.535 340.99,181.421 L340.99,140.759 C340.99,137.636 343.537,135.089 346.651,135.089 L433.321,135.089 z M103.318,72.422 C106.432,72.422 108.988,74.969 108.988,78.092 L108.988,118.745 C108.988,121.868 106.432,124.415 103.318,124.415 L16.657,124.415 C13.693,124.284 11.338,122.209 11.035,119.219 L11.035,77.618 C11.241,74.5 13.776,72.714 16.657,72.422 L103.318,72.422 z M212.317,72.422 C215.44,72.422 217.987,74.969 217.987,78.092 L217.987,118.745 C217.987,121.868 215.44,124.415 212.317,124.415 L125.656,124.415 C122.542,124.415 119.986,121.868 119.986,118.745 L119.986,78.092 C119.986,74.969 122.542,72.422 125.656,72.422 L212.317,72.422 z M322.315,72.422 C325.438,72.422 327.985,74.969 327.985,78.092 L327.985,118.745 C327.985,121.868 325.438,124.415 322.315,124.415 L235.654,124.415 C232.54,124.415 229.984,121.868 229.984,118.745 L229.984,78.092 C229.984,74.969 232.54,72.422 235.654,72.422 L322.315,72.422 z M433.321,72.422 C436.435,72.422 438.982,74.969 438.982,78.092 L438.982,118.745 C438.982,121.868 436.435,124.415 433.321,124.415 L346.651,124.415 C343.537,124.415 340.99,121.868 340.99,118.745 L340.99,78.092 C340.99,74.969 343.537,72.422 346.651,72.422 L433.321,72.422 z M103.318,10.421 C106.432,10.421 108.988,12.968 108.988,16.091 L108.988,56.753 C108.988,59.867 106.432,62.423 103.318,62.423 L16.657,62.423 C13.695,62.291 11.338,60.214 11.035,57.226 L11.035,15.617 C11.241,12.499 13.776,10.713 16.657,10.421 L103.318,10.421 z M212.317,10.421 C215.44,10.421 217.987,12.968 217.987,16.091 L217.987,56.753 C217.987,59.867 215.44,62.423 212.317,62.423 L125.656,62.423 C122.542,62.423 119.986,59.867 119.986,56.753 L119.986,16.091 C119.986,12.968 122.542,10.421 125.656,10.421 L212.317,10.421 z M322.315,10.421 C325.438,10.421 327.985,12.968 327.985,16.091 L327.985,56.753 C327.985,59.867 325.438,62.423 322.315,62.423 L235.654,62.423 C232.54,62.423 229.984,59.867 229.984,56.753 L229.984,16.091 C229.984,12.968 232.54,10.421 235.654,10.421 L322.315,10.421 z M433.321,10.421 C436.435,10.421 438.982,12.968 438.982,16.091 L438.982,56.753 C438.982,59.867 436.435,62.423 433.321,62.423 L346.651,62.423 C343.537,62.423 340.99,59.867 340.99,56.753 L340.99,16.091 C340.99,12.968 343.537,10.421 346.651,10.421 L433.321,10.421 z" fill="url(#Gradient_1)"/>
    <path d="M97.648,16.091 C100.762,16.091 103.318,18.638 103.318,21.761 L103.318,51.083 C103.185,54.066 101.087,56.403 98.09,56.708 L21.884,56.708 C18.797,56.507 16.955,54.02 16.663,51.142 L16.663,21.702 C16.8,18.416 19.207,16.407 22.327,16.091 L97.648,16.091 z" fill="url(#Gradient_2)"/>
    <path d="M97.648,78.092 C100.762,78.092 103.318,80.639 103.318,83.762 L103.318,113.084 C103.186,116.123 101.035,118.401 98.013,118.708 L21.961,118.708 C18.844,118.523 16.96,116.064 16.663,113.143 L16.663,83.703 C16.8,80.417 19.207,78.408 22.327,78.092 L97.648,78.092 z" fill="url(#Gradient_3)"/>
    <path d="M97.648,140.759 C100.762,140.759 103.318,143.306 103.318,146.42 L103.318,175.751 C103.186,178.877 100.96,181.083 97.894,181.396 L22.08,181.396 C18.913,181.229 16.967,178.8 16.663,175.81 L16.663,146.361 C16.801,143.078 19.212,141.075 22.327,140.759 L97.648,140.759 z" fill="url(#Gradient_4)"/>
    <g clip-path="url(#Clip_1)">
      <path d="M97.648,200.753 C100.762,200.753 103.318,203.309 103.318,206.423 L103.318,235.745 C103.188,238.918 100.923,241.082 97.834,241.396 L22.14,241.396 C18.947,241.241 16.97,238.83 16.663,235.804 L16.663,206.364 C16.801,203.081 19.209,201.07 22.327,200.753 L97.648,200.753 z" fill="url(#Gradient_5)"/>
    </g>
    <path d="M206.647,16.091 C209.77,16.091 212.317,18.638 212.317,21.761 L212.317,51.083 C212.185,54.068 210.089,56.403 207.09,56.708 L130.884,56.708 C127.806,56.506 125.956,54.025 125.663,51.152 L125.663,21.692 C125.803,18.413 128.214,16.407 131.326,16.091 L206.647,16.091 z" fill="url(#Gradient_6)"/>
    <path d="M206.647,78.092 C209.77,78.092 212.317,80.639 212.317,83.762 L212.317,113.084 C212.186,116.126 210.037,118.401 207.013,118.708 L130.961,118.708 C127.853,118.521 125.96,116.069 125.663,113.153 L125.663,83.693 C125.803,80.414 128.214,78.408 131.326,78.092 L206.647,78.092 z" fill="url(#Gradient_7)"/>
    <path d="M206.647,140.759 C209.77,140.759 212.317,143.306 212.317,146.42 L212.317,175.751 C212.187,178.88 209.961,181.084 206.894,181.396 L131.08,181.396 C127.922,181.228 125.967,178.804 125.663,175.82 L125.663,146.351 C125.804,143.075 128.218,141.074 131.326,140.759 L206.647,140.759 z" fill="url(#Gradient_8)"/>
    <g clip-path="url(#Clip_2)">
      <path d="M206.647,200.753 C209.77,200.753 212.317,203.309 212.317,206.423 L212.317,235.745 C212.188,238.92 209.924,241.083 206.834,241.396 L131.14,241.396 C127.955,241.239 125.97,238.835 125.663,235.814 L125.663,206.354 C125.804,203.078 128.216,201.07 131.326,200.753 L206.647,200.753 z" fill="url(#Gradient_9)"/>
    </g>
    <path d="M316.645,16.091 C319.768,16.091 322.315,18.638 322.315,21.761 L322.315,51.083 C322.183,54.068 320.087,56.403 317.088,56.708 L240.882,56.708 C237.81,56.506 235.954,54.031 235.662,51.161 L235.662,21.682 C235.803,18.407 238.218,16.406 241.324,16.091 L316.645,16.091 z" fill="url(#Gradient_10)"/>
    <path d="M316.645,78.092 C319.768,78.092 322.315,80.639 322.315,83.762 L322.315,113.084 C322.184,116.126 320.035,118.401 317.011,118.708 L240.959,118.708 C237.858,118.522 235.959,116.076 235.662,113.162 L235.662,83.683 C235.803,80.408 238.218,78.407 241.324,78.092 L316.645,78.092 z" fill="url(#Gradient_11)"/>
    <path d="M316.645,140.759 C319.768,140.759 322.315,143.306 322.315,146.42 L322.315,175.751 C322.185,178.88 319.959,181.084 316.892,181.396 L241.078,181.396 C237.927,181.228 235.966,178.811 235.662,175.829 L235.662,146.341 C235.804,143.069 238.222,141.074 241.324,140.759 L316.645,140.759 z" fill="url(#Gradient_12)"/>
    <g clip-path="url(#Clip_3)">
      <path d="M316.645,200.753 C319.768,200.753 322.315,203.309 322.315,206.423 L322.315,235.745 C322.186,238.92 319.922,241.083 316.832,241.396 L241.138,241.396 C237.96,241.239 235.969,238.841 235.662,235.824 L235.662,206.344 C235.805,203.072 238.22,201.069 241.324,200.753 L316.645,200.753 z" fill="url(#Gradient_13)"/>
    </g>
    <g clip-path="url(#Clip_4)">
      <path d="M427.7,16.096 C430.696,16.233 432.976,18.373 433.28,21.358 L433.28,51.485 C433.084,54.627 430.569,56.456 427.651,56.753 L352.321,56.753 C349.207,56.753 346.66,54.197 346.66,51.083 L346.66,21.761 C346.789,18.492 349.137,16.414 352.272,16.096 L427.7,16.096 z" fill="url(#Gradient_14)"/>
    </g>
    <g clip-path="url(#Clip_5)">
      <path d="M427.69,78.096 C430.69,78.232 432.976,80.368 433.28,83.359 L433.28,113.486 C433.084,116.628 430.567,118.449 427.651,118.745 L352.321,118.745 C349.207,118.745 346.66,116.198 346.66,113.084 L346.66,83.762 C346.789,80.486 349.144,78.415 352.282,78.096 L427.69,78.096 z" fill="url(#Gradient_15)"/>
    </g>
    <g clip-path="url(#Clip_6)">
      <path d="M427.651,200.753 C430.663,200.885 432.973,203.01 433.28,206.021 L433.28,236.148 C433.091,239.065 430.786,241.097 427.975,241.382 L351.997,241.382 C348.82,241.202 346.96,238.707 346.66,235.745 L346.66,206.423 C346.66,203.309 349.207,200.753 352.321,200.753 L427.651,200.753 z" fill="url(#Gradient_16)"/>
    </g>
    <g clip-path="url(#Clip_7)">
      <path d="M427.651,140.759 C430.661,140.89 432.973,143.007 433.28,146.018 L433.28,176.153 C433.09,179.033 430.816,181.098 428.024,181.383 L351.948,181.383 C348.794,181.193 346.958,178.684 346.66,175.751 L346.66,146.42 C346.66,143.306 349.207,140.759 352.321,140.759 L427.651,140.759 z" fill="url(#Gradient_17)"/>
    </g>
    <path d="M458.986,98.418 C458.986,98.418 450.609,110.981 447.986,118.75 C438.98,145.418 410.986,151.752 402.32,166.418 C393.654,181.085 248.987,243.087 246.32,251.752 C243.653,260.418 244.105,287.004 310.212,283.044 C376.32,279.085 479.654,286.418 479.654,254.418 C479.654,222.418 464.654,87.752 458.986,98.418" fill="#FFFFFE"/>
    <path d="M211.236,253.686 C245.156,258.936 244.019,282.518 252.987,299.419 C259.487,311.669 266.76,333.439 267.14,341.493 C267.737,354.169 260.237,370.086 274.362,372.919 C283.934,374.839 290.2,364.151 282.487,353.586 C270.32,336.919 257.947,292.537 263.237,282.919 C265.987,277.919 280.237,275.669 284.237,287.669 C288.237,299.669 281.737,297.919 284.237,303.669 C286.737,309.419 300.087,316.387 301.337,302.637 C302.587,288.887 285.419,285.112 290.237,277.169 C293.32,272.086 306.987,261.086 320.32,277.086 C333.654,293.086 339.987,313.42 342.654,329.42 C345.32,345.42 339.987,364.419 351.654,367.086 C363.32,369.753 365.988,360.753 364.32,355.753 C362.654,350.753 348.793,332.888 346.656,321.753 C341.987,297.42 334.984,266.864 339.148,256.419 C346.656,237.585 367.487,231.419 376.487,242.919 C385.487,254.419 387.987,280.808 384.987,289.863 C381.987,298.919 380.014,316.419 394.514,316.419 C409.014,316.419 404.393,298.418 399.572,289.863 C394.752,281.309 384.385,247.314 389.987,235.419 C396.737,221.086 403.737,210.99 416.719,217.419 C427.51,222.763 437.627,237.993 435.987,249.419 C433.318,268.004 438.98,279.294 447.987,279.213 C460.486,279.101 459.986,260.588 447.987,247.169 C437.539,235.486 419.487,201.169 426.203,181.417 C434.092,158.223 440.979,132.052 440.979,132.052 C440.979,132.052 339.987,131.752 333.987,133.752 C327.987,135.752 341.765,172.244 339.148,176.085 C320.195,203.923 297.793,187.75 223.236,193.419" fill="#1A1919"/>
    <g clip-path="url(#Clip_8)">
      <path d="M347.317,158.084 L355.489,190.628 C352.987,207.161 329.146,199.07 333.142,204.191 C342.484,216.17 328.921,241.235 340.207,228.923 C350.503,217.691 358.774,208.421 379.798,218.168 C383.128,200.834 403.513,193.283 409.984,190.286 C405.322,168.416 412.999,166.22 411.982,148.76 L347.317,158.084 z" fill="url(#Gradient_18)"/>
    </g>
    <path d="M248.488,210.986 L313.486,212.669 L316.459,248.131 L316.459,248.413 C304.13,246.818 293.65,254.595 287.152,264.419 C283.318,270.512 232.945,245.951 232.945,245.951 L248.488,210.986 z" fill="url(#Gradient_19)"/>
    <path d="M266.153,276.711 C266.153,276.711 266.451,276.517 266.983,276.207 C267.246,276.048 267.573,275.87 267.981,275.707 C268.38,275.53 268.838,275.322 269.354,275.182 C269.611,275.101 269.88,275.017 270.157,274.93 C270.44,274.862 270.737,274.812 271.041,274.749 C271.649,274.606 272.308,274.56 272.988,274.504 C273.67,274.515 274.386,274.457 275.104,274.571 C275.829,274.622 276.55,274.812 277.271,274.978 C277.974,275.223 278.687,275.441 279.332,275.8 C280.008,276.091 280.581,276.552 281.155,276.938 C281.692,277.385 282.208,277.814 282.606,278.314 C282.81,278.557 283.03,278.77 283.198,279.016 C283.359,279.264 283.516,279.504 283.665,279.733 C283.986,280.174 284.161,280.651 284.351,281.044 C284.55,281.432 284.654,281.802 284.738,282.104 C284.911,282.704 284.986,283.045 284.986,283.045 C284.986,283.045 284.754,282.767 284.386,282.286 C284.208,282.041 283.985,281.754 283.7,281.449 C283.416,281.147 283.141,280.778 282.764,280.445 C282.406,280.097 282.021,279.731 281.573,279.392 C281.158,279.017 280.637,278.736 280.153,278.385 C279.623,278.099 279.092,277.783 278.505,277.555 C277.939,277.283 277.323,277.105 276.72,276.898 C276.096,276.75 275.479,276.575 274.846,276.491 C274.222,276.365 273.591,276.326 272.979,276.261 C272.367,276.269 271.768,276.189 271.197,276.229 C270.626,276.236 270.082,276.254 269.578,276.303 C268.568,276.385 267.733,276.473 267.115,276.58 C266.508,276.675 266.153,276.711 266.153,276.711" fill="#FFFFFE"/>
    <path d="M300.796,267.006 C300.796,267.006 301.094,266.812 301.626,266.502 C301.889,266.343 302.216,266.165 302.624,266.002 C303.022,265.825 303.48,265.617 303.997,265.477 C304.254,265.396 304.522,265.312 304.8,265.225 C305.083,265.157 305.38,265.106 305.684,265.044 C306.292,264.901 306.95,264.855 307.631,264.799 C308.313,264.81 309.028,264.752 309.747,264.866 C310.472,264.917 311.191,265.106 311.914,265.273 C312.616,265.518 313.329,265.735 313.975,266.095 C314.649,266.386 315.224,266.847 315.798,267.232 C316.334,267.68 316.851,268.109 317.248,268.608 C317.452,268.852 317.674,269.064 317.841,269.311 C318.002,269.559 318.158,269.799 318.308,270.028 C318.629,270.469 318.805,270.946 318.992,271.339 C319.191,271.727 319.297,272.097 319.381,272.398 C319.554,272.999 319.629,273.34 319.629,273.34 C319.629,273.34 319.396,273.062 319.027,272.581 C318.852,272.336 318.628,272.049 318.344,271.744 C318.059,271.441 317.783,271.073 317.406,270.74 C317.049,270.392 316.664,270.025 316.217,269.687 C315.801,269.312 315.279,269.031 314.795,268.68 C314.266,268.394 313.733,268.078 313.147,267.85 C312.582,267.578 311.966,267.399 311.362,267.192 C310.738,267.045 310.121,266.87 309.488,266.786 C308.864,266.66 308.232,266.621 307.622,266.556 C307.01,266.564 306.41,266.483 305.84,266.523 C305.269,266.531 304.725,266.549 304.221,266.598 C303.211,266.68 302.376,266.768 301.758,266.875 C301.149,266.97 300.796,267.006 300.796,267.006" fill="#FFFFFE"/>
    <path d="M360.963,233.752 C360.963,233.752 361.27,233.559 361.814,233.251 C362.084,233.09 362.424,232.921 362.848,232.768 C363.262,232.593 363.742,232.406 364.277,232.29 C364.545,232.225 364.822,232.139 365.115,232.082 C365.412,232.041 365.717,231.998 366.033,231.955 C366.664,231.859 367.342,231.86 368.041,231.872 C368.738,231.934 369.469,231.966 370.189,232.147 C370.92,232.267 371.629,232.538 372.34,232.785 L373.369,233.251 C373.709,233.408 374.02,233.622 374.342,233.806 C374.668,233.983 374.965,234.198 375.246,234.43 C375.529,234.658 375.826,234.856 376.08,235.101 C376.598,235.578 377.082,236.051 377.467,236.567 C377.891,237.045 378.205,237.563 378.483,238.039 C378.795,238.494 378.973,238.978 379.156,239.38 C379.352,239.776 379.461,240.15 379.545,240.458 C379.721,241.069 379.797,241.417 379.797,241.417 C379.797,241.417 379.563,241.133 379.191,240.639 C379.014,240.388 378.785,240.094 378.502,239.776 C378.219,239.46 377.938,239.082 377.566,238.727 C377.209,238.359 376.826,237.968 376.385,237.597 C375.973,237.195 375.463,236.862 374.98,236.477 C374.465,236.133 373.936,235.774 373.361,235.481 C372.799,235.16 372.201,234.895 371.598,234.642 C370.982,234.421 370.371,234.173 369.74,234.03 C369.117,233.849 368.49,233.731 367.877,233.621 C367.26,233.569 366.66,233.445 366.084,233.441 C365.506,233.42 364.955,233.39 364.445,233.421 C363.928,233.425 363.465,233.459 363.049,233.502 C362.633,233.534 362.252,233.564 361.943,233.625 C361.324,233.717 360.963,233.752 360.963,233.752" fill="#FFFFFE"/>
    <path d="M403.52,212.321 C403.52,212.321 403.818,212.127 404.35,211.817 C404.613,211.658 404.941,211.481 405.348,211.317 C405.749,211.141 406.205,210.933 406.721,210.792 C406.979,210.711 407.246,210.627 407.525,210.54 C407.807,210.473 408.104,210.422 408.408,210.359 C409.016,210.217 409.674,210.17 410.355,210.114 C411.037,210.125 411.752,210.067 412.471,210.182 C413.197,210.232 413.916,210.422 414.639,210.588 C415.34,210.833 416.053,211.051 416.699,211.41 C417.375,211.701 417.947,212.162 418.521,212.548 C419.059,212.995 419.574,213.425 419.973,213.924 C420.176,214.167 420.398,214.38 420.564,214.626 C420.727,214.874 420.883,215.114 421.031,215.343 C421.354,215.784 421.529,216.262 421.717,216.654 C421.916,217.042 422.021,217.412 422.105,217.714 C422.277,218.314 422.354,218.655 422.354,218.655 C422.354,218.655 422.121,218.377 421.752,217.897 C421.576,217.651 421.352,217.364 421.068,217.06 C420.783,216.757 420.508,216.389 420.131,216.056 C419.773,215.707 419.389,215.341 418.941,215.002 C418.525,214.627 418.004,214.347 417.52,213.995 C416.99,213.709 416.459,213.394 415.871,213.165 C415.307,212.894 414.689,212.715 414.086,212.508 C413.463,212.36 412.846,212.186 412.213,212.102 C411.588,211.976 410.957,211.937 410.346,211.871 C409.734,211.879 409.135,211.799 408.564,211.839 C407.994,211.847 407.449,211.864 406.945,211.913 C405.936,211.995 405.1,212.083 404.482,212.19 C403.874,212.285 403.52,212.321 403.52,212.321" fill="#FFFFFE"/>
    <path d="M286.237,299.502 C286.237,299.502 286.234,299.564 286.231,299.683 C286.234,299.797 286.209,299.981 286.237,300.184 C286.25,300.387 286.281,300.617 286.336,300.896 C286.37,301.165 286.487,301.465 286.564,301.778 C286.682,302.091 286.81,302.416 286.974,302.746 C287.042,302.915 287.146,303.075 287.249,303.237 C287.355,303.397 287.429,303.574 287.558,303.728 C287.677,303.885 287.783,304.053 287.912,304.207 C288.052,304.354 288.19,304.503 288.32,304.661 C288.445,304.822 288.625,304.94 288.766,305.092 C288.913,305.239 289.063,305.384 289.241,305.501 L289.737,305.896 L290.274,306.239 C290.62,306.483 291.005,306.673 291.367,306.875 C291.726,307.082 292.115,307.22 292.463,307.4 C292.813,307.578 293.172,307.693 293.494,307.835 C293.821,307.955 294.115,308.117 294.393,308.202 C294.668,308.294 294.907,308.396 295.106,308.475 C295.505,308.639 295.737,308.752 295.737,308.752 C295.737,308.752 295.494,308.807 295.061,308.87 C294.629,308.926 294.002,309.023 293.252,308.958 C292.876,308.935 292.459,308.94 292.036,308.831 C291.612,308.731 291.141,308.692 290.692,308.502 C290.244,308.323 289.749,308.198 289.305,307.919 C289.079,307.793 288.845,307.674 288.622,307.534 L287.981,307.054 C287.558,306.731 287.188,306.323 286.848,305.92 C286.515,305.501 286.245,305.05 286.027,304.591 C285.799,304.141 285.654,303.665 285.562,303.215 C285.449,302.768 285.435,302.328 285.432,301.933 C285.452,301.532 285.479,301.174 285.575,300.862 C285.636,300.555 285.756,300.284 285.855,300.077 C285.936,299.862 286.07,299.748 286.13,299.647 C286.2,299.553 286.237,299.502 286.237,299.502" fill="#FFFFFE"/>
    <path d="M269.487,358.745 C269.487,358.745 269.46,359.01 269.47,359.446 C269.477,359.66 269.493,359.901 269.529,360.195 C269.548,360.482 269.632,360.804 269.678,361.143 C269.772,361.481 269.842,361.844 269.973,362.211 C270.073,362.585 270.266,362.945 270.404,363.329 C270.597,363.692 270.784,364.067 271.031,364.41 C271.241,364.777 271.543,365.085 271.802,365.421 C272.119,365.708 272.388,366.044 272.742,366.288 C272.913,366.417 273.073,366.558 273.237,366.692 C273.418,366.809 273.596,366.921 273.771,367.032 C274.116,367.273 274.49,367.45 274.84,367.639 C275.186,367.836 275.538,367.983 275.867,368.124 C276.199,368.251 276.494,368.431 276.777,368.521 C277.057,368.615 277.302,368.72 277.507,368.801 C277.915,368.97 278.154,369.086 278.154,369.086 C278.154,369.086 277.904,369.139 277.458,369.195 C277.234,369.222 276.961,369.258 276.646,369.274 C276.33,369.311 275.978,369.267 275.589,369.238 C275.197,369.212 274.769,369.181 274.334,369.043 C273.894,368.929 273.413,368.836 272.963,368.597 C272.73,368.491 272.495,368.384 272.257,368.275 C272.027,368.146 271.803,367.994 271.579,367.842 C271.107,367.566 270.732,367.142 270.322,366.767 C269.981,366.324 269.604,365.903 269.368,365.404 C269.075,364.937 268.929,364.411 268.753,363.93 C268.624,363.431 268.527,362.943 268.509,362.477 C268.448,362.017 268.507,361.572 268.536,361.177 C268.644,360.378 268.863,359.752 269.091,359.332 C269.18,359.117 269.313,358.997 269.377,358.894 C269.449,358.797 269.487,358.745 269.487,358.745" fill="#FFFFFE"/>
    <path d="M347.66,355.811 C347.66,355.811 347.633,356.075 347.644,356.512 C347.65,356.726 347.666,356.967 347.703,357.261 C347.721,357.548 347.807,357.869 347.852,358.208 C347.946,358.547 348.016,358.909 348.146,359.276 C348.246,359.65 348.439,360.011 348.577,360.395 C348.771,360.758 348.958,361.133 349.205,361.476 C349.415,361.843 349.717,362.15 349.976,362.486 C350.293,362.773 350.562,363.109 350.916,363.354 C351.087,363.482 351.247,363.622 351.41,363.758 C351.592,363.874 351.77,363.986 351.945,364.098 C352.289,364.338 352.664,364.516 353.014,364.704 C353.359,364.901 353.712,365.049 354.041,365.189 C354.373,365.316 354.668,365.496 354.95,365.586 C355.23,365.681 355.475,365.785 355.68,365.866 C356.088,366.035 356.326,366.151 356.326,366.151 C356.326,366.151 356.078,366.204 355.631,366.261 C355.408,366.287 355.135,366.323 354.82,366.34 C354.504,366.376 354.152,366.331 353.762,366.304 C353.371,366.277 352.943,366.246 352.508,366.108 C352.068,365.994 351.587,365.901 351.137,365.662 C350.904,365.557 350.668,365.449 350.43,365.341 C350.2,365.211 349.977,365.06 349.753,364.907 C349.281,364.632 348.906,364.206 348.496,363.831 C348.156,363.39 347.779,362.969 347.541,362.47 C347.249,362.002 347.104,361.477 346.926,360.995 C346.797,360.496 346.701,360.009 346.684,359.542 C346.622,359.081 346.682,358.638 346.709,358.242 C346.817,357.443 347.037,356.817 347.266,356.398 C347.354,356.183 347.487,356.063 347.551,355.959 C347.623,355.862 347.66,355.811 347.66,355.811" fill="#FFFFFE"/>
    <path d="M385.846,300.848 C385.863,300.843 385.797,301.153 385.852,301.645 C385.865,301.878 385.914,302.157 385.98,302.493 C386.021,302.818 386.159,303.186 386.236,303.576 C386.379,303.964 386.482,304.384 386.659,304.813 C386.807,305.248 387.025,305.681 387.221,306.135 C387.432,306.58 387.684,307.026 387.945,307.463 L388.357,308.115 C388.502,308.328 388.668,308.525 388.82,308.732 C389.102,309.171 389.5,309.499 389.816,309.898 C390.207,310.212 390.527,310.612 390.932,310.882 C391.336,311.146 391.684,311.486 392.092,311.686 C392.491,311.896 392.844,312.174 393.225,312.317 C393.596,312.479 393.936,312.652 394.244,312.807 C394.564,312.911 394.844,313.023 395.078,313.111 C395.545,313.295 395.82,313.42 395.82,313.42 C395.82,313.42 395.534,313.464 395.021,313.506 C394.766,313.523 394.449,313.55 394.084,313.555 C393.727,313.523 393.318,313.481 392.871,313.411 C392.414,313.375 391.955,313.197 391.455,313.036 C390.943,312.899 390.459,312.618 389.949,312.345 C389.439,312.069 388.971,311.687 388.488,311.313 C388.066,310.876 387.586,310.465 387.238,309.952 C387.057,309.701 386.865,309.458 386.699,309.201 C386.549,308.934 386.4,308.667 386.252,308.403 C385.965,307.873 385.77,307.308 385.584,306.772 C385.406,306.23 385.284,305.692 385.217,305.177 C385.109,304.671 385.127,304.168 385.104,303.723 C385.127,303.265 385.133,302.858 385.219,302.492 C385.254,302.311 385.279,302.143 385.318,301.989 C385.371,301.833 385.42,301.689 385.465,301.559 C385.537,301.299 385.666,301.146 385.734,301.025 C385.807,300.909 385.846,300.848 385.846,300.848" fill="#FFFFFE"/>
    <path d="M441.189,264.211 C441.189,264.211 441.186,264.281 441.178,264.412 C441.172,264.542 441.15,264.743 441.168,264.975 C441.172,265.207 441.191,265.475 441.229,265.801 C441.246,266.117 441.328,266.477 441.375,266.856 C441.457,267.238 441.531,267.649 441.645,268.071 C441.701,268.281 441.76,268.496 441.82,268.717 C441.906,268.93 441.969,269.15 442.043,269.372 C442.182,269.816 442.4,270.248 442.596,270.684 C442.816,271.11 443.031,271.543 443.314,271.931 C443.541,272.359 443.902,272.68 444.172,273.067 C444.535,273.363 444.799,273.772 445.186,274.016 C445.551,274.281 445.881,274.592 446.264,274.787 C446.635,275 446.975,275.248 447.334,275.389 C447.689,275.561 448.016,275.717 448.305,275.856 C448.607,275.958 448.875,276.068 449.098,276.155 C449.543,276.335 449.805,276.458 449.805,276.458 C449.805,276.458 449.533,276.504 449.043,276.55 C448.797,276.569 448.496,276.598 448.148,276.606 C447.805,276.595 447.416,276.545 446.986,276.483 C446.551,276.451 446.102,276.305 445.625,276.136 C445.135,276.002 444.66,275.747 444.178,275.461 C443.926,275.333 443.693,275.168 443.471,274.981 C443.24,274.805 443.012,274.619 442.785,274.424 C442.398,273.981 441.949,273.557 441.648,273.036 C441.494,272.779 441.318,272.532 441.186,272.268 C441.063,271.997 440.941,271.728 440.82,271.461 C440.686,271.199 440.633,270.912 440.547,270.641 C440.469,270.368 440.387,270.101 440.346,269.828 C440.299,269.559 440.242,269.296 440.211,269.035 C440.197,268.773 440.184,268.518 440.17,268.269 C440.135,267.774 440.191,267.303 440.232,266.877 C440.348,266.018 440.557,265.337 440.787,264.867 C440.875,264.63 441.008,264.489 441.076,264.377 C441.15,264.269 441.189,264.211 441.189,264.211" fill="#FFFFFE"/>
    <path d="M16.656,48.418 C16.504,45.793 16.418,43.168 16.361,40.547 C16.302,37.925 16.271,35.306 16.278,32.688 C16.253,30.067 16.304,27.453 16.335,24.835 C16.351,22.217 16.44,19.604 16.515,16.989 L16.563,15.352 L18.291,15.277 C20.845,15.168 23.4,15.066 25.955,15.021 L33.621,14.837 L41.288,14.775 C43.844,14.736 46.401,14.775 48.957,14.793 C51.514,14.808 54.071,14.833 56.628,14.909 C59.185,14.968 61.742,15.024 64.301,15.143 C66.858,15.23 69.416,15.362 71.975,15.511 C73.254,15.572 74.534,15.683 75.814,15.766 C77.093,15.855 78.373,15.965 79.653,16.087 C78.378,16.252 77.102,16.404 75.826,16.534 C74.55,16.659 73.274,16.812 71.998,16.914 C69.446,17.147 66.893,17.361 64.339,17.531 C61.786,17.732 59.232,17.873 56.678,18.015 C54.125,18.174 51.571,18.281 49.016,18.378 C46.461,18.481 43.907,18.603 41.351,18.647 L33.686,18.834 L26.018,18.9 C23.463,18.938 20.906,18.918 18.349,18.893 L20.126,17.182 C19.923,19.789 19.734,22.398 19.473,25.002 C19.227,27.606 19.001,30.213 18.698,32.815 C18.427,35.419 18.119,38.023 17.783,40.624 C17.449,43.224 17.085,45.822 16.656,48.418" fill="#BD9F7D"/>
    <path d="M16.656,110.418 C16.38,107.806 16.169,105.193 15.988,102.582 C15.804,99.968 15.649,97.356 15.531,94.746 C15.383,92.132 15.309,89.522 15.217,86.909 C15.109,84.297 15.073,81.687 15.024,79.074 L14.991,77.356 L16.802,77.277 C19.357,77.168 21.911,77.066 24.467,77.021 L32.132,76.837 L39.8,76.775 C42.355,76.736 44.912,76.775 47.468,76.793 C50.025,76.808 52.582,76.833 55.139,76.909 C57.697,76.968 60.254,77.024 62.813,77.143 C65.369,77.23 67.927,77.362 70.486,77.511 C71.765,77.572 73.045,77.683 74.325,77.766 C75.604,77.855 76.884,77.965 78.164,78.087 C76.889,78.252 75.613,78.404 74.337,78.534 C73.061,78.659 71.785,78.812 70.509,78.914 C67.957,79.147 65.404,79.361 62.85,79.531 C60.298,79.732 57.743,79.873 55.19,80.015 C52.636,80.174 50.082,80.281 47.527,80.378 C44.972,80.481 42.418,80.603 39.863,80.647 L32.197,80.834 L24.53,80.9 C21.974,80.938 19.418,80.918 16.861,80.893 L18.639,79.095 C18.56,81.707 18.496,84.316 18.359,86.927 C18.237,89.538 18.134,92.148 17.956,94.758 C17.809,97.37 17.624,99.98 17.412,102.588 C17.202,105.199 16.961,107.81 16.656,110.418" fill="#BD9F7D"/>
    <path d="M125.656,108.865 C125.38,106.252 125.168,103.64 124.988,101.028 C124.804,98.415 124.649,95.803 124.531,93.192 C124.383,90.579 124.309,87.968 124.217,85.356 C124.109,82.744 124.073,80.133 124.024,77.522 L123.991,75.802 L125.802,75.724 C128.357,75.615 130.911,75.513 133.467,75.467 L141.132,75.284 L148.8,75.222 C151.355,75.183 153.912,75.222 156.469,75.24 C159.025,75.254 161.582,75.279 164.139,75.356 C166.697,75.415 169.254,75.471 171.813,75.589 C174.369,75.676 176.928,75.809 179.486,75.958 C180.766,76.019 182.045,76.129 183.325,76.212 C184.604,76.301 185.885,76.412 187.164,76.534 C185.889,76.698 184.613,76.851 183.338,76.981 C182.061,77.106 180.785,77.258 179.51,77.36 C176.957,77.593 174.404,77.808 171.85,77.978 C169.299,78.179 166.743,78.319 164.19,78.461 C161.637,78.621 159.082,78.728 156.527,78.825 C153.973,78.927 151.418,79.049 148.863,79.093 L141.197,79.28 L133.53,79.347 C130.974,79.384 128.417,79.365 125.861,79.339 L127.639,77.542 C127.56,80.153 127.496,82.763 127.359,85.374 C127.237,87.984 127.134,90.595 126.956,93.205 C126.809,95.816 126.624,98.426 126.412,101.035 C126.202,103.647 125.961,106.256 125.656,108.865" fill="#BD9F7D"/>
    <path d="M346.551,111.085 C346.212,108.423 345.938,105.761 345.693,103.099 C345.446,100.436 345.229,97.772 345.049,95.107 C344.836,92.443 344.699,89.778 344.544,87.113 C344.373,84.449 344.274,81.783 344.162,79.119 L344.088,77.356 L345.939,77.277 C348.494,77.168 351.049,77.066 353.604,77.021 L361.27,76.837 L368.938,76.775 C371.494,76.736 374.051,76.775 376.607,76.793 C379.162,76.808 381.719,76.833 384.277,76.91 C386.834,76.968 389.391,77.024 391.949,77.143 C394.508,77.23 397.066,77.362 399.625,77.511 C400.902,77.572 402.184,77.683 403.463,77.766 C404.742,77.855 406.021,77.965 407.303,78.087 C406.027,78.252 404.752,78.404 403.475,78.535 C402.199,78.66 400.924,78.812 399.646,78.914 C397.094,79.147 394.541,79.361 391.988,79.531 C389.436,79.732 386.881,79.873 384.328,80.015 C381.773,80.174 379.219,80.281 376.664,80.378 C374.111,80.481 371.557,80.603 369,80.647 L361.336,80.834 L353.668,80.9 C351.111,80.938 348.555,80.918 345.998,80.893 L347.777,79.052 C347.762,81.721 347.76,84.388 347.686,87.057 C347.627,89.726 347.587,92.394 347.473,95.064 C347.389,97.732 347.268,100.402 347.117,103.072 C346.971,105.743 346.793,108.414 346.551,111.085" fill="#BD9F7D"/>
    <path d="M235.656,173.085 C235.381,170.473 235.168,167.86 234.988,165.248 C234.805,162.636 234.649,160.024 234.531,157.412 C234.383,154.799 234.309,152.188 234.217,149.577 C234.109,146.964 234.073,144.353 234.024,141.741 L233.991,140.022 L235.803,139.944 C238.357,139.835 240.911,139.733 243.467,139.686 L251.132,139.504 L258.8,139.442 C261.355,139.403 263.912,139.442 266.469,139.46 C269.025,139.474 271.582,139.499 274.14,139.577 C276.697,139.635 279.254,139.692 281.813,139.809 C284.369,139.896 286.928,140.029 289.486,140.178 C290.766,140.239 292.045,140.349 293.325,140.432 C294.604,140.52 295.884,140.631 297.164,140.754 C295.89,140.918 294.613,141.071 293.337,141.202 C292.062,141.326 290.785,141.477 289.509,141.581 C286.957,141.813 284.404,142.028 281.851,142.198 C279.298,142.399 276.743,142.539 274.19,142.68 C271.637,142.84 269.082,142.948 266.527,143.045 C263.973,143.147 261.418,143.269 258.863,143.313 L251.197,143.501 L243.53,143.567 C240.975,143.604 238.417,143.585 235.861,143.559 L237.639,141.762 C237.561,144.373 237.496,146.983 237.359,149.594 C237.237,152.204 237.135,154.815 236.956,157.424 C236.809,160.036 236.624,162.646 236.412,165.256 C236.202,167.866 235.961,170.476 235.656,173.085" fill="#BD9F7D"/>
    <path d="M16.656,173.085 C16.38,170.472 16.169,167.86 15.988,165.247 C15.804,162.636 15.649,160.023 15.531,157.411 C15.383,154.799 15.309,152.188 15.217,149.576 C15.109,146.963 15.073,144.352 15.024,141.741 L14.991,140.021 L16.802,139.944 C19.357,139.835 21.911,139.733 24.467,139.686 L32.132,139.504 L39.8,139.442 C42.355,139.403 44.912,139.442 47.468,139.46 C50.025,139.473 52.582,139.499 55.139,139.576 C57.697,139.634 60.254,139.691 62.813,139.809 C65.369,139.895 67.927,140.028 70.486,140.177 C71.765,140.239 73.045,140.348 74.325,140.432 C75.604,140.52 76.884,140.631 78.164,140.754 C76.889,140.918 75.613,141.071 74.337,141.201 C73.061,141.325 71.785,141.477 70.509,141.58 C67.957,141.812 65.404,142.028 62.85,142.198 C60.298,142.399 57.743,142.538 55.19,142.68 C52.636,142.84 50.082,142.948 47.527,143.045 C44.972,143.147 42.418,143.268 39.863,143.313 L32.197,143.5 L24.53,143.567 C21.974,143.604 19.418,143.585 16.861,143.559 L18.639,141.761 C18.56,144.372 18.496,146.983 18.359,149.593 C18.237,152.204 18.134,154.815 17.956,157.424 C17.809,160.036 17.624,162.646 17.412,165.255 C17.202,167.866 16.961,170.476 16.656,173.085" fill="#BD9F7D"/>
    <path d="M125.656,231.635 C125.38,229.022 125.168,226.41 124.988,223.797 C124.804,221.186 124.649,218.572 124.531,215.961 C124.383,213.35 124.309,210.738 124.217,208.126 C124.109,205.514 124.073,202.902 124.024,200.291 L123.991,198.571 L125.802,198.494 C128.357,198.385 130.911,198.283 133.467,198.236 L141.132,198.055 L148.8,197.992 C151.355,197.953 153.912,197.992 156.469,198.01 C159.025,198.023 161.582,198.049 164.139,198.126 C166.697,198.185 169.254,198.241 171.813,198.359 C174.369,198.445 176.928,198.578 179.486,198.728 C180.766,198.789 182.045,198.898 183.325,198.982 C184.604,199.07 185.885,199.182 187.164,199.305 C185.889,199.469 184.613,199.621 183.338,199.751 C182.061,199.875 180.785,200.027 179.51,200.13 C176.957,200.362 174.404,200.578 171.85,200.748 C169.299,200.948 166.743,201.088 164.19,201.231 C161.637,201.391 159.082,201.498 156.527,201.596 C153.973,201.697 151.418,201.818 148.863,201.863 L141.197,202.05 L133.53,202.117 C130.974,202.154 128.417,202.135 125.861,202.109 L127.639,200.312 C127.56,202.922 127.496,205.533 127.359,208.144 C127.237,210.754 127.134,213.364 126.956,215.975 C126.809,218.586 126.624,221.195 126.412,223.805 C126.202,226.416 125.961,229.025 125.656,231.635" fill="#BD9F7D"/>
    <path d="M16.656,231.635 C16.38,229.022 16.169,226.41 15.988,223.797 C15.804,221.186 15.649,218.572 15.531,215.961 C15.383,213.35 15.309,210.738 15.217,208.126 C15.109,205.514 15.073,202.902 15.024,200.291 L14.991,198.571 L16.802,198.494 C19.357,198.385 21.911,198.283 24.467,198.236 L32.132,198.055 L39.8,197.992 C42.355,197.953 44.912,197.992 47.468,198.01 C50.025,198.023 52.582,198.049 55.139,198.126 C57.697,198.185 60.254,198.241 62.813,198.359 C65.369,198.445 67.927,198.578 70.486,198.728 C71.765,198.789 73.045,198.898 74.325,198.982 C75.604,199.07 76.884,199.182 78.164,199.305 C76.889,199.469 75.613,199.621 74.337,199.751 C73.061,199.875 71.785,200.027 70.509,200.13 C67.957,200.362 65.404,200.578 62.85,200.748 C60.298,200.948 57.743,201.088 55.19,201.231 C52.636,201.391 50.082,201.498 47.527,201.596 C44.972,201.697 42.418,201.818 39.863,201.863 L32.197,202.05 L24.53,202.117 C21.974,202.154 19.418,202.135 16.861,202.109 L18.639,200.312 C18.56,202.922 18.496,205.533 18.359,208.144 C18.237,210.754 18.134,213.364 17.956,215.975 C17.809,218.586 17.624,221.195 17.412,223.805 C17.202,226.416 16.961,229.025 16.656,231.635" fill="#BD9F7D"/>
    <path d="M238.369,233.752 C238.947,231.737 239.584,229.748 240.248,227.773 C240.91,225.795 241.599,223.829 242.32,221.879 C243.015,219.916 243.776,217.983 244.521,216.043 C245.253,214.096 246.051,212.179 246.835,210.256 L247.268,209.194 L248.533,209.183 C252.956,209.146 257.375,209.233 261.794,209.334 C264.003,209.405 266.212,209.459 268.42,209.557 C270.629,209.632 272.836,209.765 275.044,209.883 C277.252,209.995 279.459,210.118 281.665,210.294 C283.872,210.451 286.078,210.606 288.283,210.822 C290.489,211.009 292.693,211.239 294.898,211.487 C296.001,211.598 297.102,211.757 298.204,211.89 C299.306,212.027 300.406,212.188 301.508,212.359 C300.399,212.474 299.292,212.578 298.184,212.658 C297.076,212.733 295.969,212.836 294.862,212.89 C292.647,213.023 290.434,213.14 288.222,213.212 C286.009,213.314 283.797,213.355 281.585,213.398 C279.373,213.459 277.162,213.469 274.951,213.467 C272.74,213.471 270.529,213.489 268.319,213.45 C266.109,213.435 263.899,213.374 261.69,213.331 C257.272,213.203 252.854,213.064 248.44,212.798 L250.139,211.725 C249.236,213.596 248.349,215.472 247.393,217.318 C246.451,219.172 245.528,221.033 244.535,222.863 C243.571,224.706 242.573,226.534 241.55,228.351 C240.527,230.168 239.479,231.974 238.369,233.752" fill="#BD9F7D"/>
    <path d="M352.898,180.315 C352.09,178.591 351.345,176.851 350.629,175.101 C349.91,173.352 349.217,171.593 348.563,169.827 C347.877,168.067 347.263,166.288 346.631,164.511 C345.984,162.741 345.407,160.95 344.816,159.165 L344.186,157.252 L346.271,156.869 C348.883,156.39 351.496,155.918 354.119,155.501 L361.979,154.207 L369.857,153.03 C372.48,152.622 375.115,152.289 377.748,151.936 C380.379,151.578 383.012,151.231 385.654,150.936 C388.291,150.622 390.93,150.307 393.578,150.051 C396.221,149.767 398.871,149.525 401.523,149.302 C402.848,149.176 404.18,149.1 405.506,148.996 C406.834,148.898 408.166,148.821 409.5,148.757 C408.212,149.106 406.92,149.441 405.625,149.755 C404.33,150.065 403.039,150.399 401.74,150.688 C399.148,151.288 396.551,151.873 393.949,152.413 C391.352,152.982 388.742,153.49 386.135,154.002 C383.531,154.531 380.918,155.01 378.305,155.478 C375.691,155.948 373.08,156.44 370.457,156.856 L362.6,158.153 L354.721,159.335 C352.098,159.744 349.465,160.095 346.832,160.441 L348.286,158.148 C348.754,159.969 349.234,161.79 349.646,163.628 C350.071,165.463 350.516,167.294 350.889,169.145 C351.29,170.986 351.656,172.839 351.995,174.7 C352.337,176.561 352.648,178.428 352.898,180.315" fill="#BD9F7D"/>
    <path d="M156.41,152.418 C156.41,154.494 154.729,156.175 152.654,156.175 C150.578,156.175 148.896,154.494 148.896,152.418 C148.896,150.343 150.578,148.662 152.654,148.662 C154.729,148.662 156.41,150.343 156.41,152.418" fill="#A38768"/>
    <path d="M144.884,98.418 C144.884,100.494 143.202,102.175 141.127,102.175 C139.051,102.175 137.369,100.494 137.369,98.418 C137.369,96.343 139.051,94.662 141.127,94.662 C143.202,94.662 144.884,96.343 144.884,98.418" fill="#A38768"/>
    <path d="M78.165,168.419 C78.165,170.45 76.519,172.097 74.486,172.097 C72.456,172.097 70.81,170.45 70.81,168.419 C70.81,166.388 72.456,164.741 74.486,164.741 C76.519,164.741 78.165,166.388 78.165,168.419" fill="#A38768"/>
    <path d="M147.626,29.085 C147.626,32.674 144.716,35.585 141.126,35.585 C137.537,35.585 134.626,32.674 134.626,29.085 C134.626,25.495 137.537,22.585 141.126,22.585 C144.716,22.585 147.626,25.495 147.626,29.085" fill="#A38768"/>
    <path d="M53.987,218.419 C53.987,219.892 52.793,221.086 51.32,221.086 C49.847,221.086 48.653,219.892 48.653,218.419 C48.653,216.946 49.847,215.752 51.32,215.752 C52.793,215.752 53.987,216.946 53.987,218.419" fill="#A38768"/>
    <path d="M256.717,89.884 C256.717,92.523 254.578,94.662 251.939,94.662 C249.3,94.662 247.161,92.523 247.161,89.884 C247.161,87.245 249.3,85.106 251.939,85.106 C254.578,85.106 256.717,87.245 256.717,89.884" fill="#A38768"/>
    <path d="M265.162,231.636 C265.162,234.274 263.022,236.413 260.385,236.413 C257.745,236.413 255.605,234.274 255.605,231.636 C255.605,228.997 257.745,226.857 260.385,226.857 C263.022,226.857 265.162,228.997 265.162,231.636" fill="#A38768"/>
    <path d="M395.24,164.741 C395.24,167.38 393.102,169.518 390.463,169.518 C387.823,169.518 385.684,167.38 385.684,164.741 C385.684,162.102 387.823,159.963 390.463,159.963 C393.102,159.963 395.24,162.102 395.24,164.741" fill="#A38768"/>
    <path d="M72.737,98.418 C72.737,99.482 71.874,100.347 70.809,100.347 C69.745,100.347 68.882,99.482 68.882,98.418 C68.882,97.355 69.745,96.49 70.809,96.49 C71.874,96.49 72.737,97.355 72.737,98.418" fill="#A38768"/>
    <path d="M384.32,36.418 C384.32,38.443 382.68,40.085 380.654,40.085 C378.629,40.085 376.986,38.443 376.986,36.418 C376.986,34.394 378.629,32.752 380.654,32.752 C382.68,32.752 384.32,34.394 384.32,36.418" fill="#A38768"/>
    <path d="M255.605,32.752 C255.605,34.776 253.964,36.418 251.939,36.418 C249.914,36.418 248.271,34.776 248.271,32.752 C248.271,30.727 249.914,29.085 251.939,29.085 C253.964,29.085 255.605,30.727 255.605,32.752" fill="#A38768"/>
    <path d="M384.32,97.818 C384.32,99.107 383.275,100.152 381.986,100.152 C380.697,100.152 379.652,99.107 379.652,97.818 C379.652,96.529 380.697,95.484 381.986,95.484 C383.275,95.484 384.32,96.529 384.32,97.818" fill="#A38768"/>
  </g>
</svg>
