<svg id="visual" viewBox="0 0 900 600" width="900" height="600" xmlns="http://www.w3.org/2000/svg" xmlns:xlink="http://www.w3.org/1999/xlink" version="1.1"><rect x="0" y="0" width="900" height="600" fill="#955e42"></rect><defs><linearGradient id="grad1_0" x1="33.3%" y1="0%" x2="100%" y2="100%"><stop offset="20%" stop-color="#f6c28b" stop-opacity="1"></stop><stop offset="80%" stop-color="#f6c28b" stop-opacity="1"></stop></linearGradient></defs><defs><linearGradient id="grad1_1" x1="33.3%" y1="0%" x2="100%" y2="100%"><stop offset="20%" stop-color="#f6c28b" stop-opacity="1"></stop><stop offset="80%" stop-color="#c68e65" stop-opacity="1"></stop></linearGradient></defs><defs><linearGradient id="grad1_2" x1="33.3%" y1="0%" x2="100%" y2="100%"><stop offset="20%" stop-color="#955e42" stop-opacity="1"></stop><stop offset="80%" stop-color="#c68e65" stop-opacity="1"></stop></linearGradient></defs><defs><linearGradient id="grad2_0" x1="0%" y1="0%" x2="66.7%" y2="100%"><stop offset="20%" stop-color="#f6c28b" stop-opacity="1"></stop><stop offset="80%" stop-color="#f6c28b" stop-opacity="1"></stop></linearGradient></defs><defs><linearGradient id="grad2_1" x1="0%" y1="0%" x2="66.7%" y2="100%"><stop offset="20%" stop-color="#c68e65" stop-opacity="1"></stop><stop offset="80%" stop-color="#f6c28b" stop-opacity="1"></stop></linearGradient></defs><defs><linearGradient id="grad2_2" x1="0%" y1="0%" x2="66.7%" y2="100%"><stop offset="20%" stop-color="#c68e65" stop-opacity="1"></stop><stop offset="80%" stop-color="#955e42" stop-opacity="1"></stop></linearGradient></defs><g transform="translate(900, 0)"><path d="M0 324.5C-40.1 312.1 -80.2 299.7 -117.5 283.6C-154.8 267.5 -189.3 247.7 -221.3 221.3C-253.4 195 -283 162.1 -299.8 124.2C-316.6 86.2 -320.5 43.1 -324.5 0L0 0Z" fill="#ad7653"></path><path d="M0 216.3C-26.7 208.1 -53.5 199.8 -78.3 189.1C-103.2 178.3 -126.2 165.1 -147.5 147.5C-168.9 130 -188.7 108.1 -199.9 82.8C-211.1 57.5 -213.7 28.7 -216.3 0L0 0Z" fill="#dea878"></path><path d="M0 108.2C-13.4 104 -26.7 99.9 -39.2 94.5C-51.6 89.2 -63.1 82.6 -73.8 73.8C-84.5 65 -94.3 54 -99.9 41.4C-105.5 28.7 -106.8 14.4 -108.2 0L0 0Z" fill="#f6c28b"></path></g><g transform="translate(0, 600)"><path d="M0 -324.5C42.4 -319.7 84.7 -314.9 124.2 -299.8C163.6 -284.7 200.2 -259.3 227.7 -227.7C255.2 -196.1 273.6 -158.4 288.3 -119.4C302.9 -80.4 313.7 -40.2 324.5 0L0 0Z" fill="#ad7653"></path><path d="M0 -216.3C28.2 -213.1 56.5 -209.9 82.8 -199.9C109.1 -189.8 133.5 -172.8 151.8 -151.8C170.1 -130.7 182.4 -105.6 192.2 -79.6C201.9 -53.6 209.1 -26.8 216.3 0L0 0Z" fill="#dea878"></path><path d="M0 -108.2C14.1 -106.6 28.2 -105 41.4 -99.9C54.5 -94.9 66.7 -86.4 75.9 -75.9C85.1 -65.4 91.2 -52.8 96.1 -39.8C101 -26.8 104.6 -13.4 108.2 0L0 0Z" fill="#f6c28b"></path></g></svg>